<svg width="10" height="8" viewBox="0 0 10 8" fill="none" xmlns="http://www.w3.org/2000/svg">
<path d="M8.34124 0.59126C8.49869 0.435191 8.71123 0.347356 8.93292 0.346744C9.15461 0.346132 9.36763 0.432793 9.52593 0.587992C9.68423 0.74319 9.77509 0.954455 9.77887 1.17611C9.78265 1.39777 9.69904 1.61201 9.54612 1.77251L5.05512 7.38626C4.97793 7.4694 4.88478 7.53611 4.78122 7.58242C4.67766 7.62873 4.56582 7.65368 4.4524 7.65578C4.33898 7.65789 4.2263 7.63709 4.1211 7.59465C4.01589 7.5522 3.92033 7.48898 3.84012 7.40876L0.864494 4.43201C0.781597 4.35477 0.715107 4.26162 0.668991 4.15812C0.622875 4.05462 0.598077 3.94289 0.596079 3.8296C0.59408 3.71631 0.61492 3.60378 0.657356 3.49871C0.699792 3.39365 0.762955 3.29821 0.843076 3.21809C0.923197 3.13797 1.01864 3.07481 1.1237 3.03237C1.22876 2.98994 1.34129 2.9691 1.45458 2.97109C1.56787 2.97309 1.6796 2.99789 1.7831 3.04401C1.8866 3.09012 1.97975 3.15661 2.05699 3.23951L4.41274 5.59414L8.31987 0.61601C8.32684 0.607294 8.33435 0.599027 8.34237 0.59126H8.34124Z" fill="#0c54a0"/>
</svg>
